<svg width="195.365" xmlns="http://www.w3.org/2000/svg" height="207" id="screenshot-d5439c29-1b72-803f-8004-8f2ff157aca6" viewBox="753 400 195.365 207" style="-webkit-print-color-adjust::exact" xmlns:xlink="http://www.w3.org/1999/xlink" fill="none" version="1.1">
  <g id="shape-d5439c29-1b72-803f-8004-8f2ff157aca6" rx="0" ry="0">
    <g id="shape-1b5ba76f-ce73-80e4-8004-8e620ff07358">
      <g fill="none">
        <g class="fills" id="fills-1b5ba76f-ce73-80e4-8004-8e620ff07358">
          <rect rx="0" ry="0" x="886" y="481" width="62.36500000000001" height="70.9359999999997" transform="matrix(1.000000, 0.000000, 0.000000, 1.000000, 0.000000, 0.000000)" class="frame-background">
          </rect>
        </g>
        <g class="frame-children">
          <g id="shape-1b5ba76f-ce73-80e4-8004-8e620ff07359" style="fill:#000000" width="235.711" height="268.103" rx="0" ry="0">
            <g id="shape-1b5ba76f-ce73-80e4-8004-8e620ff0735b">
              <g class="fills" id="fills-1b5ba76f-ce73-80e4-8004-8e620ff0735b">
                <path d="M908.957,537.126L909.131,547.543C909.131,547.543,914.064,550.987,927.758,551.044C941.451,551.101,946.717,546.561,946.717,546.561C946.717,546.561,941.230,507.228,937.198,500.241C933.166,493.254,931.806,488.586,935.522,488.928C939.238,489.269,944.788,492.813,945.578,490.578C946.369,488.344,943.412,482.851,939.380,482.453C935.348,482.054,927.426,486.309,927.426,486.309L907.771,487.163C907.771,487.163,906.032,481.713,902.031,483.420C898.031,485.128,892.528,490.194,893.556,493.140C894.584,496.086,899.881,491.148,901.778,490.706C903.676,490.265,906.538,490.621,904.688,495.032C902.838,499.444,891.484,510.530,890.899,511.298C890.314,512.066,892.417,521.345,900.703,522.227C908.989,523.109,914.808,520.406,914.808,520.406L910.364,528.773C910.364,528.773,893.477,534.835,894.220,543.189C894.963,551.542,900.102,550.589,900.972,547.387C901.842,544.185,903.739,537.667,908.957,537.126ZZ" overflow="visible" color="#000" style="fill:#8ee1d5;fill-opacity:0.7">
                </path>
              </g>
            </g>
            <g id="shape-1b5ba76f-ce73-80e4-8004-8e620ff0bbf6">
              <g class="fills" id="fills-1b5ba76f-ce73-80e4-8004-8e620ff0bbf6">
                <path d="M936.062,481.001C932.700,480.958,929.433,481.954,927.561,483.848C927.301,484.168,926.039,484.644,925.709,484.546C920.359,483.515,913.949,484.093,908.869,485.756L908.307,485.263C905.967,480.691,902.272,482.012,900.469,482.502C895.309,483.904,889.635,489.113,890.227,495.081C890.365,496.475,891.051,498.360,893.549,497.670C896.095,496.816,899.120,493.434,902.084,492.134C903.573,491.481,903.793,492.732,903.438,493.846C902.156,497.878,893.333,506.953,887.936,509.101C884.931,509.193,885.801,512.935,887.990,513.903C888.485,513.903,888.875,514.226,888.875,514.637C889.848,520.772,899.676,525.841,907.753,523.993C908.525,523.732,910.215,523.476,910.987,523.273C910.521,524.798,909.840,525.895,909.768,526.479C904.864,528.106,896.567,531.220,894.388,535.109C892.194,539.082,890.882,544.174,892.961,548.368C894.440,551.236,897.526,553.109,900.410,551.091C902.750,550.195,903.118,547.511,903.631,544.891C904.144,542.270,904.804,539.714,907.726,539.075C907.277,540.730,907.562,543.321,907.385,545.044C906.970,549.719,911.437,547.658,911.038,545.514C910.798,536.887,914.789,523.169,916.616,521.128C921.828,518.420,925.591,515.203,928.966,511.975C930.075,510.914,933.368,506.715,933.368,505.681C933.307,504.628,931.912,503.382,930.487,504.478C927.200,507.870,926.783,509.059,922.623,512.043C922.671,509.500,921.891,507.327,920.681,505.620C919.732,504.697,917.963,505.599,918.463,507.083C919.299,508.946,919.133,510.864,918.645,512.909C918.645,513.329,917.971,514.512,917.460,514.990C914.222,517.915,906.180,520.562,902.080,520.071C899.181,519.724,896.161,517.866,894.169,515.725C892.961,514.403,892.934,514.315,893.608,513.917C895.692,512.971,897.040,511.120,895.898,509.528C895.324,508.736,895.320,508.504,895.877,508.262C900.732,505.806,904.150,502.085,905.661,496.793C908.089,492.012,906.465,489.259,903.506,488.894C901.782,488.684,900.525,489.256,898.958,490.375C898.200,490.912,896.774,491.774,897.735,490.327C898.445,489.665,898.992,488.224,899.041,486.883C899.153,485.295,901.982,483.925,903.748,485.653C904.533,486.301,904.719,486.545,904.724,486.934C904.787,488.441,909.267,489.615,910.778,489.136C911.669,488.731,912.069,488.097,913.425,489.085C915.521,491.219,922.453,491.218,924.251,487.153C924.510,486.575,925.752,486.398,926.256,486.867C927.007,487.537,928.294,487.558,929.154,487.119C933.198,483.825,937.971,482.626,942.615,486.354C944.950,488.229,944.185,489.546,940.949,488.889C939.442,488.584,937.729,488.238,935.129,488.085C933.195,487.931,931.696,489.704,931.610,491.945C931.565,493.315,932.467,494.247,932.891,495.347C933.967,498.905,936.564,503.412,937.594,507.756C937.975,509.311,937.651,509.148,936.404,510.317C934.246,512.425,932.011,515.604,931.291,518.864C931.060,519.776,931.546,523.700,930.048,523.685C920.962,525.556,919.248,532.540,918.460,540.910C918.143,544.279,920.287,548.148,922.463,549.646C924.791,551.194,926.071,550.263,927.583,548.976C930.435,546.547,930.047,542.673,930.681,540.021C930.949,538.899,933.817,535.410,933.850,536.909C935.406,542.313,940.726,541.490,943.542,539.388C943.880,541.084,943.925,541.456,943.925,542.551C943.875,544.059,944.062,546.582,945.050,546.969C946.431,547.938,948.942,547.177,948.245,544.248C948.066,542.394,947.097,536.519,946.961,534.257C945.512,520.417,940.820,505.627,935.451,492.936C934.233,491.883,935.028,490.237,936.717,490.829C939.085,490.800,943.702,492.998,946.642,492.843C949.025,492.383,947.966,490.624,947.369,488.301C946.096,483.351,940.976,481.065,936.062,481.001ZZM921.607,493.183C921.428,493.185,921.233,493.210,921.019,493.262C920.165,493.254,919.735,493.837,919.462,495.375C919.200,496.852,919.316,497.606,919.890,498.138C921.699,499.770,922.781,496.923,923.285,495.185C923.280,494.278,922.857,493.167,921.607,493.183ZZM913.776,494.284C913.125,494.271,912.566,494.506,912.378,494.996C911.828,496.601,911.536,499.014,913.086,500.029C914.731,500.347,915.483,499.516,915.832,497.847C916.187,496.125,916.161,495.464,915.723,495.065C915.168,494.559,914.426,494.298,913.776,494.284ZZM930.932,527.625C931.575,528.149,933.388,529.267,934.158,529.267C935.372,529.869,934.381,531.354,933.436,531.593C926.414,533.215,927.548,538.918,925.334,543.512C924.099,545.720,923.319,545.543,922.753,542.769C921.818,538.191,924.436,530.931,927.391,528.971C928.615,528.160,930.932,527.625,930.932,527.625ZZM909.115,531.131C908.409,532.681,908.623,534.045,908.025,535.122C907.817,536.592,901.974,536.037,900.306,542.472C899.423,545.121,897.267,549.286,896.272,544.792C895.882,542.780,896.406,540.792,897.076,539.430C899.216,535.184,903.609,532.948,909.115,531.131ZZ" style="fill:#4308ff;fill-opacity:0.7">
                </path>
              </g>
            </g>
          </g>
        </g>
      </g>
    </g>
    <g id="shape-d5439c29-1b72-803f-8004-8f2fd619770d">
      <g fill="none">
        <g class="fills" id="fills-d5439c29-1b72-803f-8004-8f2fd619770d">
          <rect rx="0" ry="0" x="753" y="400" width="190" height="207" transform="matrix(1.000000, 0.000000, 0.000000, 1.000000, 0.000000, 0.000000)" class="frame-background">
          </rect>
        </g>
        <g class="frame-children">
          <g id="shape-d5439c29-1b72-803f-8004-8f2fd619770e" style="fill:#000000" width="274.011" height="304.744" rx="0" ry="0">
            <g id="shape-d5439c29-1b72-803f-8004-8f2fd6197710">
              <g class="fills" id="fills-d5439c29-1b72-803f-8004-8f2fd6197710">
                <path d="M779.903,407.372C779.492,407.381,776.200,407.966,775.775,408.096C766.718,410.854,775.709,446.877,775.709,446.877C771.733,470.607,762.314,512.901,760.581,568.265C759.700,574.119,758.893,579.036,758.211,582.475C776.082,583.910,790.361,587.156,809.671,585.450C809.671,585.450,813.110,600.528,826.512,601.719C839.914,602.910,839.745,583.723,839.745,583.723C853.694,587.290,872.551,583.352,891.440,579.367L888.092,551.452C899.286,552.673,915.876,553.110,918.303,563.332C920.791,573.814,927.426,581.613,932.864,573.379C938.301,565.146,942.049,539.607,920.883,533.730C912.606,530.087,885.896,533.125,885.230,527.573C878.499,497.792,882.360,483.429,879.616,461.838L877.951,440.700L872.630,412.191L855.325,431.683L793.152,430.809C793.152,430.809,788.210,407.199,779.903,407.372ZZ" overflow="visible" color="#000" style="fill:#8ee1d5;fill-opacity:0.7">
                </path>
              </g>
            </g>
            <g id="shape-d5439c29-1b72-803f-8004-8f2fd619bd28">
              <g class="fills" id="fills-d5439c29-1b72-803f-8004-8f2fd619bd28">
                <path d="M779.835,400.000C773.165,399.951,767.202,411.294,766.281,418.901C766.127,427.353,764.367,429.869,768.925,444.343C768.789,463.178,754.907,532.846,753.246,563.129C753.595,570.259,751.433,575.978,755.687,581.965C759.063,585.469,760.573,584.683,763.877,583.178C766.380,582.038,765.877,573.044,765.401,566.576C764.880,552.617,768.095,535.717,770.078,512.367C770.409,508.532,770.481,508.449,773.060,508.989C775.362,509.453,777.951,509.100,780.361,508.625C782.524,508.260,785.678,507.491,786.537,505.339C788.104,500.002,777.757,501.728,773.562,500.448C771.946,499.973,771.934,499.952,772.209,498.008C772.417,496.528,772.113,496.996,773.002,495.159C774.362,495.144,775.862,494.987,777.438,495.537C781.765,495.876,785.719,495.195,786.881,493.914C789.344,491.061,786.119,489.400,783.109,488.215C780.159,487.054,777.153,487.340,774.055,487.073C774.035,486.149,773.865,485.481,773.955,485.053C774.088,484.419,774.590,484.309,776.641,484.462C785.366,485.113,786.200,485.047,788.100,483.547C794.143,478.609,784.657,476.742,780.158,476.383C776.805,475.911,775.482,475.578,775.331,475.173C776.892,464.021,778.016,460.495,780.077,448.659C781.035,441.660,770.726,431.153,775.813,420.278C777.081,416.307,777.924,414.403,779.075,414.276C779.766,414.200,780.568,414.763,781.635,415.904C785.079,419.499,782.973,432.896,791.947,435.899C796.325,437.865,800.115,436.923,804.106,437.056C803.603,439.445,803.864,441.027,805.363,443.418C806.762,445.604,807.906,445.990,809.578,444.837C810.851,443.959,811.437,441.381,812.640,437.577C813.066,436.273,817.210,434.047,818.184,437.651C819.119,441.107,818.390,442.135,820.019,444.563C821.867,446.817,823.899,448.608,826.073,443.779C826.904,442.013,827.215,439.563,827.311,436.909C827.978,433.742,829.874,434.443,832.643,436.064C833.905,438.890,834.386,441.027,837.078,442.288C839.447,442.718,840.873,440.297,841.650,437.973C842.400,436.160,842.402,436.160,844.595,436.313C845.802,436.398,848.814,436.856,851.288,437.331C858.766,438.465,862.595,427.138,865.793,421.076C867.716,417.753,870.109,418.688,871.551,422.774C871.485,429.653,870.944,438.124,872.437,441.927C876.701,456.699,880.829,473.500,877.663,493.199C872.993,496.137,865.689,488.332,865.426,482.305C870.211,481.133,874.679,470.947,865.318,469.147C862.375,468.224,860.628,468.005,854.719,467.819C845.103,467.646,844.636,479.114,854.461,480.941C857.101,483.749,850.133,495.804,846.595,497.776C841.416,500.664,836.484,496.424,832.616,493.136C831.297,491.663,827.862,491.491,826.971,492.853C824.583,497.288,836.205,505.733,840.768,507.025C847.188,509.127,853.197,506.997,856.885,501.732C858.508,499.176,860.078,496.987,861.407,494.279C863.185,492.127,862.719,494.289,864.171,496.058C866.237,499.462,871.294,503.261,876.403,503.106C877.415,518.821,878.355,529.946,879.050,538.894C879.604,546.017,882.759,572.487,882.759,572.487C884.806,591.575,895.363,582.578,894.391,573.516C893.896,568.902,895.130,566.953,894.517,555.902C900.790,557.406,911.704,563.517,915.753,573.671C925.328,590.750,944.862,578.103,942.856,562.743C941.253,556.304,940.167,549.880,936.535,543.282C924.772,523.179,904.933,523.960,888.364,523.804C886.413,500.363,889.323,474.194,885.611,449.369C884.829,444.729,883.872,439.868,882.689,434.747C880.368,425.325,883.910,414.625,877.199,405.996C874.450,402.936,868.653,402.928,864.839,405.986C858.331,412.355,855.146,418.975,847.953,426.461C825.073,424.687,813.769,426.539,797.229,425.447C793.560,419.933,791.874,414.682,788.964,408.549C786.046,402.399,782.868,400.023,779.835,400.000ZZM836.747,449.633C834.248,449.596,832.676,451.442,831.796,455.322C831.346,457.335,831.213,460.666,833.483,462.878C834.715,463.916,838.109,463.766,839.838,463.159C842.664,461.916,845.599,452.104,839.564,450.294C838.517,449.868,837.580,449.646,836.747,449.633ZZM809.240,450.257C805.050,450.257,804.275,454.535,804.665,458.760C805.037,462.567,807.392,464.880,811.279,465.385C814.752,464.854,816.011,461.458,816.665,456.251C816.652,451.602,815.017,450.285,809.240,450.257ZZM811.736,530.018C810.750,533.109,814.200,538.018,817.348,538.708C830.127,542.546,834.689,558.542,834.147,569.614C833.835,574.041,834.749,578.585,832.731,583.436C832.211,585.020,831.871,585.439,831.006,585.576C827.989,586.129,829.033,590.775,827.447,592.757C825.962,593.306,825.946,592.787,827.218,586.900C827.997,583.310,829.800,576.335,823.176,577.973C822.000,578.548,820.865,581.199,819.978,585.418C819.484,587.780,818.939,589.683,818.767,589.648C815.687,588.304,815.846,569.898,814.997,567.516C815.808,555.216,804.123,547.587,797.363,545.909C788.619,543.739,787.069,549.815,793.297,554.246C793.140,554.223,792.987,554.194,792.830,554.171C808.370,566.983,799.108,577.711,805.986,590.916C812.755,603.914,833.069,616.019,840.500,597.562C841.614,594.795,842.565,592.138,843.370,589.583C846.663,575.635,847.025,564.098,843.601,552.198C838.780,535.449,831.762,533.184,825.338,529.430C819.369,526.959,813.145,526.028,811.736,530.018ZZM928.551,552.707C926.347,556.293,925.190,556.520,926.446,564.767C927.578,568.190,925.444,569.344,922.862,565.147C914.919,553.923,906.272,546.609,893.756,546.882C891.646,546.014,889.935,534.740,891.857,535.084C907.893,530.770,924.587,541.662,928.551,552.707ZZ" style="fill:#4308ff;fill-opacity:0.7">
                </path>
              </g>
            </g>
          </g>
        </g>
      </g>
    </g>
  </g>
</svg>