<svg width="192.365" xmlns="http://www.w3.org/2000/svg" height="236" id="screenshot-1b5ba76f-ce73-80e4-8004-8e6235f5e487" viewBox="748 362 192.365 236" style="-webkit-print-color-adjust::exact" xmlns:xlink="http://www.w3.org/1999/xlink" fill="none" version="1.1">
  <g id="shape-1b5ba76f-ce73-80e4-8004-8e6235f5e487" rx="0" ry="0">
    <g id="shape-1b5ba76f-ce73-80e4-8004-8e61edcdef80">
      <g fill="none">
        <g class="fills" id="fills-1b5ba76f-ce73-80e4-8004-8e61edcdef80">
          <rect rx="0" ry="0" x="748" y="362" width="184" height="207" transform="matrix(1.000000, 0.000000, 0.000000, 1.000000, 0.000000, 0.000000)" class="frame-background">
          </rect>
        </g>
        <g class="frame-children">
          <g id="shape-1b5ba76f-ce73-80e4-8004-8e61edcdef81" style="fill:#000000" width="274.011" height="304.744" rx="0" ry="0">
            <g id="shape-1b5ba76f-ce73-80e4-8004-8e61edcdef83">
              <g class="fills" id="fills-1b5ba76f-ce73-80e4-8004-8e61edcdef83">
                <path d="M774.053,369.372C773.656,369.381,770.467,369.966,770.056,370.096C761.285,372.854,769.992,408.877,769.992,408.877C766.141,432.607,757.019,474.901,755.342,530.265C754.489,536.119,753.706,541.036,753.046,544.475C770.353,545.910,784.181,549.156,802.882,547.450C802.882,547.450,806.212,562.528,819.191,563.719C832.169,564.910,832.005,545.723,832.005,545.723C845.514,549.290,863.776,545.352,882.068,541.367L878.826,513.452C889.667,514.673,905.732,515.110,908.083,525.332C910.492,535.814,916.918,543.613,922.184,535.379C927.450,527.146,931.079,501.607,910.581,495.730C902.566,492.087,876.699,495.125,876.055,489.573C869.535,459.792,873.275,445.429,870.618,423.838L869.006,402.700L863.853,374.191L847.094,393.683L786.884,392.809C786.884,392.809,782.098,369.199,774.053,369.372ZZ" overflow="visible" color="#000" style="fill:#ffffff">
                </path>
              </g>
            </g>
            <g id="shape-1b5ba76f-ce73-80e4-8004-8e61edcdef84">
              <g class="fills" id="fills-1b5ba76f-ce73-80e4-8004-8e61edcdef84">
                <path d="M776.988,391.000C770.528,390.951,764.754,402.293,763.862,409.901C763.713,418.353,762.008,420.869,766.422,435.343C766.290,454.178,752.846,523.846,751.238,554.129C751.576,561.259,749.482,566.978,753.602,572.965C756.872,576.469,758.333,575.683,761.533,574.178C763.958,573.038,763.470,564.043,763.010,557.575C762.505,543.617,765.618,526.717,767.538,503.367C767.859,499.532,767.929,499.449,770.426,499.989C772.656,500.452,775.164,500.100,777.497,499.625C779.592,499.260,782.646,498.490,783.478,496.339C784.996,491.002,774.975,492.728,770.913,491.447C769.348,490.973,769.336,490.952,769.602,489.008C769.804,487.528,769.510,487.996,770.370,486.158C771.687,486.143,773.140,485.987,774.666,486.537C778.857,486.876,782.686,486.195,783.811,484.914C786.197,482.061,783.073,480.400,780.159,479.215C777.301,478.054,774.390,478.339,771.390,478.073C771.371,477.149,771.206,476.481,771.293,476.053C771.422,475.419,771.908,475.309,773.895,475.462C782.344,476.113,783.151,476.047,784.991,474.547C790.843,469.609,781.657,467.742,777.300,467.383C774.054,466.911,772.772,466.578,772.626,466.173C774.138,455.021,775.226,451.494,777.222,439.658C778.150,432.660,768.166,422.152,773.093,411.278C774.321,407.307,775.137,405.402,776.252,405.276C776.921,405.199,777.697,405.763,778.731,406.904C782.066,410.499,780.026,423.896,788.717,426.899C792.957,428.864,796.627,427.923,800.492,428.056C800.005,430.445,800.258,432.026,801.709,434.417C803.064,436.604,804.172,436.990,805.791,435.837C807.024,434.959,807.591,432.380,808.757,428.577C809.169,427.273,813.182,425.047,814.126,428.650C815.031,432.107,814.326,433.135,815.903,435.563C817.692,437.817,819.661,439.608,821.765,434.779C822.571,433.013,822.871,430.563,822.964,427.909C823.610,424.742,825.447,425.443,828.128,427.064C829.350,429.890,829.816,432.027,832.423,433.288C834.717,433.718,836.098,431.296,836.851,428.972C837.577,427.160,837.579,427.159,839.702,427.313C840.872,427.398,843.789,427.856,846.184,428.331C853.426,429.465,857.134,418.137,860.231,412.076C862.094,408.753,864.410,409.687,865.808,413.774C865.743,420.653,865.219,429.124,866.665,432.927C870.795,447.699,874.792,464.500,871.726,484.199C867.204,487.137,860.131,479.332,859.876,473.305C864.510,472.133,868.836,461.947,859.771,460.147C856.921,459.224,855.229,459.005,849.507,458.819C840.194,458.646,839.742,470.113,849.257,471.941C851.813,474.749,845.065,486.804,841.640,488.776C836.624,491.664,831.848,487.424,828.102,484.135C826.825,482.663,823.498,482.491,822.635,483.853C820.323,488.288,831.578,496.732,835.996,498.024C842.214,500.127,848.033,497.997,851.605,492.731C853.176,490.176,854.696,487.987,855.984,485.279C857.705,483.127,857.254,485.288,858.660,487.058C860.661,490.462,865.559,494.261,870.506,494.105C871.486,509.821,872.397,520.946,873.070,529.894C873.605,537.017,876.662,563.486,876.662,563.486C878.644,582.575,888.867,573.578,887.926,564.516C887.447,559.902,888.642,557.953,888.048,546.902C894.122,548.406,904.692,554.517,908.614,564.671C917.886,581.750,936.803,569.102,934.860,553.743C933.308,547.304,932.257,540.880,928.739,534.282C917.347,514.179,898.135,514.960,882.090,514.803C880.200,491.363,883.018,465.194,879.424,440.368C878.666,435.729,877.740,430.868,876.593,425.747C874.346,416.325,877.776,405.625,871.277,396.995C868.614,393.936,863.001,393.928,859.307,396.986C853.004,403.355,849.920,409.975,842.954,417.461C820.797,415.686,809.850,417.538,793.832,416.447C790.279,410.932,788.646,405.682,785.828,399.549C783.002,393.399,779.924,391.022,776.988,391.000ZZM832.103,440.633C829.683,440.595,828.160,442.442,827.308,446.322C826.872,448.335,826.743,451.666,828.942,453.878C830.135,454.916,833.422,454.766,835.095,454.158C837.832,452.915,840.675,443.104,834.830,441.293C833.816,440.868,832.909,440.646,832.103,440.633ZZM805.464,441.257C801.406,441.257,800.656,445.535,801.034,449.760C801.393,453.567,803.675,455.880,807.439,456.385C810.802,455.853,812.021,452.458,812.655,447.251C812.642,442.602,811.059,441.285,805.464,441.257ZZM807.881,521.018C806.927,524.109,810.267,529.018,813.316,529.708C825.692,533.545,830.109,549.542,829.584,560.614C829.282,565.041,830.168,569.585,828.214,574.435C827.709,576.019,827.381,576.439,826.543,576.576C823.621,577.129,824.632,581.775,823.096,583.757C821.658,584.306,821.642,583.787,822.875,577.900C823.628,574.309,825.375,567.335,818.960,568.973C817.821,569.547,816.722,572.199,815.863,576.418C815.384,578.779,814.857,580.682,814.690,580.647C811.707,579.303,811.861,560.897,811.040,558.516C811.824,546.216,800.509,538.587,793.962,536.909C785.494,534.739,783.993,540.815,790.025,545.245C789.873,545.223,789.724,545.194,789.572,545.171C804.621,557.983,795.652,568.711,802.313,581.916C808.868,594.914,828.541,607.019,835.737,588.562C836.815,585.795,837.736,583.138,838.516,580.583C841.705,566.634,842.056,555.098,838.740,543.198C834.071,526.448,827.274,524.184,821.054,520.430C815.273,517.958,809.246,517.028,807.881,521.018ZZM921.007,543.707C918.873,547.293,917.753,547.519,918.969,555.767C920.065,559.190,917.999,560.344,915.498,556.147C907.806,544.923,899.432,537.609,887.311,537.881C885.267,537.014,883.610,525.739,885.472,526.084C901.002,521.770,917.168,532.662,921.007,543.707ZZ" style="fill:#030303">
                </path>
              </g>
            </g>
          </g>
        </g>
      </g>
    </g>
    <g id="shape-1b5ba76f-ce73-80e4-8004-8e620ff07358">
      <g fill="none">
        <g class="fills" id="fills-1b5ba76f-ce73-80e4-8004-8e620ff07358">
          <rect rx="0" ry="0" x="878" y="443" width="62.36500000000001" height="70.9359999999997" transform="matrix(1.000000, 0.000000, 0.000000, 1.000000, 0.000000, 0.000000)" class="frame-background">
          </rect>
        </g>
        <g class="frame-children">
          <g id="shape-1b5ba76f-ce73-80e4-8004-8e620ff07359" style="fill:#000000" width="235.711" height="268.103" rx="0" ry="0">
            <g id="shape-1b5ba76f-ce73-80e4-8004-8e620ff0735b">
              <g class="fills" id="fills-1b5ba76f-ce73-80e4-8004-8e620ff0735b">
                <path d="M900.957,499.126L901.131,509.543C901.131,509.543,906.064,512.987,919.758,513.044C933.451,513.101,938.717,508.561,938.717,508.561C938.717,508.561,933.230,469.228,929.198,462.241C925.166,455.254,923.806,450.586,927.522,450.928C931.238,451.269,936.788,454.813,937.578,452.578C938.369,450.344,935.412,444.851,931.380,444.453C927.348,444.054,919.426,448.309,919.426,448.309L899.771,449.163C899.771,449.163,898.032,443.713,894.031,445.420C890.031,447.128,884.528,452.194,885.556,455.140C886.584,458.086,891.881,453.148,893.778,452.706C895.676,452.265,898.538,452.621,896.688,457.032C894.838,461.444,883.484,472.530,882.899,473.298C882.314,474.066,884.417,483.345,892.703,484.227C900.989,485.109,906.808,482.406,906.808,482.406L902.364,490.773C902.364,490.773,885.477,496.835,886.220,505.189C886.963,513.542,892.102,512.589,892.972,509.387C893.842,506.185,895.739,499.667,900.957,499.126ZZ" overflow="visible" color="#000" style="fill:#ffffff">
                </path>
              </g>
            </g>
            <g id="shape-1b5ba76f-ce73-80e4-8004-8e620ff0bbf6">
              <g class="fills" id="fills-1b5ba76f-ce73-80e4-8004-8e620ff0bbf6">
                <path d="M928.062,443.001C924.700,442.958,921.433,443.954,919.561,445.848C919.301,446.168,918.039,446.644,917.709,446.546C912.359,445.515,905.949,446.093,900.869,447.756L900.307,447.263C897.967,442.691,894.272,444.012,892.469,444.502C887.309,445.904,881.635,451.113,882.227,457.081C882.365,458.475,883.051,460.360,885.549,459.670C888.095,458.816,891.120,455.434,894.084,454.134C895.573,453.481,895.793,454.732,895.438,455.846C894.156,459.878,885.333,468.953,879.936,471.101C876.931,471.193,877.801,474.935,879.990,475.903C880.485,475.903,880.875,476.226,880.875,476.637C881.848,482.772,891.676,487.841,899.753,485.993C900.525,485.732,902.215,485.476,902.987,485.273C902.521,486.798,901.840,487.895,901.768,488.479C896.864,490.106,888.567,493.220,886.388,497.109C884.194,501.082,882.882,506.174,884.961,510.368C886.440,513.236,889.526,515.109,892.410,513.091C894.750,512.195,895.118,509.511,895.631,506.891C896.144,504.270,896.804,501.714,899.726,501.075C899.277,502.730,899.562,505.321,899.385,507.044C898.970,511.719,903.437,509.658,903.038,507.514C902.798,498.887,906.789,485.169,908.616,483.128C913.828,480.420,917.591,477.203,920.966,473.975C922.075,472.914,925.368,468.715,925.368,467.681C925.307,466.628,923.912,465.382,922.487,466.478C919.200,469.870,918.783,471.059,914.623,474.043C914.671,471.500,913.891,469.327,912.681,467.620C911.732,466.697,909.963,467.599,910.463,469.083C911.299,470.946,911.133,472.864,910.645,474.909C910.645,475.329,909.971,476.512,909.460,476.990C906.222,479.915,898.180,482.562,894.080,482.071C891.181,481.724,888.161,479.866,886.169,477.725C884.961,476.403,884.934,476.315,885.608,475.917C887.692,474.971,889.040,473.120,887.898,471.528C887.324,470.736,887.320,470.504,887.877,470.262C892.732,467.806,896.150,464.085,897.661,458.793C900.089,454.012,898.465,451.259,895.506,450.894C893.782,450.684,892.525,451.256,890.958,452.375C890.200,452.912,888.774,453.774,889.735,452.327C890.445,451.665,890.992,450.224,891.041,448.883C891.153,447.295,893.982,445.925,895.748,447.653C896.533,448.301,896.719,448.545,896.724,448.934C896.787,450.441,901.267,451.615,902.778,451.136C903.669,450.731,904.069,450.097,905.425,451.085C907.521,453.219,914.453,453.218,916.251,449.153C916.510,448.575,917.752,448.398,918.256,448.867C919.007,449.537,920.294,449.558,921.154,449.119C925.198,445.825,929.971,444.626,934.615,448.354C936.950,450.229,936.185,451.546,932.949,450.889C931.442,450.584,929.729,450.238,927.129,450.085C925.195,449.931,923.696,451.704,923.610,453.945C923.565,455.315,924.467,456.247,924.891,457.347C925.967,460.905,928.564,465.412,929.594,469.756C929.975,471.311,929.651,471.148,928.404,472.317C926.246,474.425,924.011,477.604,923.291,480.864C923.060,481.776,923.546,485.700,922.048,485.685C912.962,487.556,911.248,494.540,910.460,502.910C910.143,506.279,912.287,510.148,914.463,511.646C916.791,513.194,918.071,512.263,919.583,510.976C922.435,508.547,922.047,504.673,922.681,502.021C922.949,500.899,925.817,497.410,925.850,498.909C927.406,504.313,932.726,503.490,935.542,501.388C935.880,503.084,935.925,503.456,935.925,504.551C935.875,506.059,936.062,508.582,937.050,508.969C938.431,509.938,940.942,509.177,940.245,506.248C940.066,504.394,939.097,498.519,938.961,496.257C937.512,482.417,932.820,467.627,927.451,454.936C926.233,453.883,927.028,452.237,928.717,452.829C931.085,452.800,935.702,454.998,938.642,454.843C941.025,454.383,939.966,452.624,939.369,450.301C938.096,445.351,932.976,443.065,928.062,443.001ZZM913.607,455.183C913.428,455.185,913.233,455.210,913.019,455.262C912.165,455.254,911.735,455.837,911.462,457.375C911.200,458.852,911.316,459.606,911.890,460.138C913.699,461.770,914.781,458.923,915.285,457.185C915.280,456.278,914.857,455.167,913.607,455.183ZZM905.776,456.284C905.125,456.271,904.566,456.506,904.378,456.996C903.828,458.601,903.536,461.014,905.086,462.029C906.731,462.347,907.483,461.516,907.832,459.847C908.187,458.125,908.161,457.464,907.723,457.065C907.168,456.559,906.426,456.298,905.776,456.284ZZM922.932,489.625C923.575,490.149,925.388,491.267,926.158,491.267C927.372,491.869,926.381,493.354,925.436,493.593C918.414,495.215,919.548,500.918,917.334,505.512C916.099,507.720,915.319,507.543,914.753,504.769C913.818,500.191,916.436,492.931,919.391,490.971C920.615,490.160,922.932,489.625,922.932,489.625ZZM901.115,493.131C900.409,494.681,900.623,496.045,900.025,497.122C899.817,498.592,893.974,498.037,892.306,504.472C891.423,507.121,889.267,511.286,888.272,506.792C887.882,504.780,888.406,502.792,889.076,501.430C891.216,497.184,895.609,494.948,901.115,493.131ZZ" style="fill:#030303">
                </path>
              </g>
            </g>
          </g>
        </g>
      </g>
    </g>
  </g>
</svg>