<svg width="369" xmlns="http://www.w3.org/2000/svg" height="12" id="screenshot-1b5ba76f-ce73-80e4-8004-8e12e683b16a" viewBox="601 675 369 12" style="-webkit-print-color-adjust::exact" xmlns:xlink="http://www.w3.org/1999/xlink" fill="none" version="1.1">
  <g id="shape-1b5ba76f-ce73-80e4-8004-8e12e683b16a">
    <g class="fills" id="fills-1b5ba76f-ce73-80e4-8004-8e12e683b16a">
      <path d="M601.000,681.000L606.000,680.000L624.000,679.000L693.000,679.000L736.000,680.000L807.000,684.000L898.000,684.000L914.000,685.000L930.000,685.000L941.000,686.000L956.000,686.000L970.000,687.000L939.000,687.000L897.000,685.000L879.000,683.000L864.000,682.000L850.000,682.000L846.000,681.000L792.000,679.000L777.000,679.000L762.000,678.000L749.000,678.000L739.000,677.000L686.000,677.000L675.000,676.000L650.000,676.000L644.000,675.000L615.000,675.000">
      </path>
    </g>
    <g id="strokes-1b5ba76f-ce73-80e4-8004-8e12e683b16a" class="strokes">
      <g class="stroke-shape">
        <path d="M601.000,681.000L606.000,680.000L624.000,679.000L693.000,679.000L736.000,680.000L807.000,684.000L898.000,684.000L914.000,685.000L930.000,685.000L941.000,686.000L956.000,686.000L970.000,687.000L939.000,687.000L897.000,685.000L879.000,683.000L864.000,682.000L850.000,682.000L846.000,681.000L792.000,679.000L777.000,679.000L762.000,678.000L749.000,678.000L739.000,677.000L686.000,677.000L675.000,676.000L650.000,676.000L644.000,675.000L615.000,675.000" style="fill:none;fill-opacity:none;stroke-width:2;stroke:#4308ff;stroke-opacity:0.7">
        </path>
      </g>
    </g>
  </g>
</svg>