<svg width="202" xmlns="http://www.w3.org/2000/svg" height="65.205" id="screenshot-1b5ba76f-ce73-80e4-8004-8e3dc797f87e" viewBox="730 226 202 65.205" style="-webkit-print-color-adjust::exact" xmlns:xlink="http://www.w3.org/1999/xlink" fill="none" version="1.1">
  <style>
  </style>
  <g id="shape-1b5ba76f-ce73-80e4-8004-8e3dc797f87e" rx="0" ry="0">
    <g id="shape-1b5ba76f-ce73-80e4-8004-8e08a9af0eaa">
      <g fill="none">
        <g class="fills" id="fills-1b5ba76f-ce73-80e4-8004-8e08a9af0eaa">
          <rect rx="0" ry="0" x="730" y="226" width="48" height="54.818181818181756" transform="matrix(1.000000, 0.000000, 0.000000, 1.000000, 0.000000, 0.000000)" class="frame-background">
          </rect>
        </g>
        <g class="frame-children">
          <g id="shape-1b5ba76f-ce73-80e4-8004-8e08a9af0eab" style="fill:#000000" width="567.036" height="690.85" rx="0" ry="0">
            <g id="shape-1b5ba76f-ce73-80e4-8004-8e08a9af763a">
              <g class="fills" id="fills-1b5ba76f-ce73-80e4-8004-8e08a9af763a">
                <path d="M730.712,279.723C730.712,279.723,730.592,229.841,730.466,227.893C730.341,225.946,734.309,226.312,734.546,229.224C738.074,228.110,744.379,227.966,752.787,234.256C761.229,240.572,776.216,231.634,776.216,231.634L777.324,256.991C777.324,256.991,767.804,266.912,752.901,260.616C737.998,254.320,733.392,258.090,733.392,258.090L733.929,280.041C733.929,280.041,732.250,281.986,730.712,279.723ZZ" overflow="visible" color="#000" style="fill:#8ee1d5;fill-opacity:0.8">
                </path>
              </g>
            </g>
            <g id="shape-1b5ba76f-ce73-80e4-8004-8e08a9af763b">
              <g class="fills" id="fills-1b5ba76f-ce73-80e4-8004-8e08a9af763b">
                <path d="M733.929,280.041C732.557,277.306,733.481,258.982,732.739,258.900C731.731,259.429,731.497,259.916,731.551,261.367C731.697,266.588,731.987,271.901,731.716,279.862C731.155,279.843,731.023,280.192,730.712,279.723C730.942,274.584,730.351,264.191,730.435,259.632C730.498,256.486,730.502,250.509,730.443,245.791C730.420,243.922,730.409,240.617,730.419,238.446C730.429,236.275,730.414,234.386,730.386,234.249C730.358,234.111,730.315,233.201,730.291,232.225C730.264,231.129,730.202,230.400,730.129,230.317C729.979,230.147,729.950,227.203,730.095,226.854C730.227,226.538,730.706,226.114,730.842,226.193C730.899,226.226,731.109,226.188,731.309,226.110C732.498,225.645,734.806,226.742,734.806,227.772C734.806,228.135,735.052,228.402,735.297,228.306C735.547,228.207,735.613,228.199,737.266,228.060C738.154,227.985,738.928,227.978,739.558,228.038C740.082,228.088,740.606,228.128,740.723,228.127C740.897,228.126,742.266,228.322,743.282,228.493C743.746,228.572,744.571,228.781,744.746,228.864C744.848,228.913,744.995,228.952,745.072,228.952C745.681,228.952,747.842,230.211,748.911,231.189C750.746,232.856,752.987,233.990,755.009,234.938C760.078,237.021,765.557,236.241,770.361,234.244C770.479,234.195,770.900,234.042,771.299,233.905C772.574,233.465,774.366,232.445,775.340,231.606C775.749,231.253,775.958,231.220,775.958,231.506C775.958,231.591,776.062,231.650,776.212,231.650C776.651,231.650,776.691,231.821,776.764,234.003C776.803,235.155,776.859,236.136,776.890,236.183C776.998,236.352,777.025,237.157,777.073,241.594C777.100,244.067,777.144,246.316,777.172,246.591C777.199,246.865,777.233,247.518,777.247,248.040C777.261,248.562,777.308,249.057,777.350,249.139C777.393,249.221,777.454,249.739,777.485,250.288C777.517,250.838,777.568,251.470,777.598,251.693C777.802,253.200,778.036,256.609,777.996,257.483C777.973,257.976,777.648,258.154,777.102,257.974C776.655,257.826,776.655,257.826,776.264,258.204C773.507,260.441,769.932,262.259,766.651,263.019C764.696,263.482,760.389,263.490,758.741,263.033C758.565,262.984,758.205,262.915,757.941,262.880C757.677,262.844,757.149,262.713,756.768,262.588C756.387,262.463,755.811,262.281,755.489,262.185C755.166,262.089,754.711,261.930,754.476,261.832C750.332,259.777,744.620,257.548,740.244,257.243C738.232,256.949,733.362,257.844,734.110,258.371C734.242,258.464,734.276,258.993,734.318,261.581C734.464,270.765,734.493,272.323,734.544,273.953C734.575,274.931,734.623,276.055,734.651,276.451C734.851,279.290,734.824,279.905,734.492,280.066C734.109,280.251,734.076,280.207,733.929,280.041ZZM765.031,262.091C765.265,262.055,765.745,261.980,766.097,261.924C768.514,261.537,771.769,260.026,774.910,257.833C775.501,257.421,776.130,256.984,776.309,256.863C776.789,256.536,776.808,256.477,776.807,255.335C776.807,254.390,776.751,253.656,776.392,249.888C776.281,248.717,776.201,247.685,776.123,246.391C776.097,245.951,776.064,243.837,776.051,241.694C776.038,239.550,775.991,237.392,775.947,236.897C775.903,236.402,775.833,235.241,775.790,234.317C775.713,232.636,775.713,232.636,775.169,233.134C774.870,233.408,774.338,233.779,773.986,233.959C772.734,234.601,772.061,234.904,771.614,235.029C770.996,235.382,770.317,235.486,769.668,235.741C769.287,235.892,768.615,236.116,768.176,236.239C767.736,236.361,767.280,236.500,767.163,236.547C766.943,236.635,765.496,236.904,764.673,237.008C763.983,237.096,761.111,237.104,760.078,237.021C757.085,236.780,755.630,236.418,753.303,235.335C752.910,235.152,752.714,235.052,751.651,234.495C751.117,234.214,749.199,232.741,748.110,231.774C747.598,231.320,747.070,230.904,746.937,230.850C746.803,230.796,746.621,230.710,746.534,230.659C741.573,227.796,731.221,229.036,731.439,232.467C731.580,234.689,731.613,236.122,731.595,239.245C731.585,241.032,731.595,243.820,731.618,245.441C731.675,249.514,731.649,257.414,731.578,257.808C731.506,258.208,731.570,258.213,732.038,257.837C732.241,257.675,732.448,257.540,732.497,257.538C732.758,257.526,733.066,257.176,732.925,257.052C732.845,256.983,732.773,256.748,732.763,256.530C732.754,256.312,732.733,255.943,732.717,255.710C732.668,254.977,732.673,250.434,732.724,250.052C732.751,249.852,732.802,248.969,732.838,248.090C732.874,247.210,732.941,245.906,732.986,245.192C733.031,244.477,733.083,241.442,733.101,238.446C733.133,233.245,733.143,232.503,733.188,231.785C733.213,231.383,733.727,231.155,733.982,231.434C734.314,231.797,734.299,231.256,734.223,240.245C734.203,242.581,734.162,244.672,734.131,244.892C734.099,245.112,734.043,245.921,734.006,246.691C733.969,247.460,733.912,248.472,733.878,248.939C733.845,249.406,733.802,251.311,733.782,253.173C733.757,255.568,733.710,256.598,733.621,256.698C733.429,256.916,733.605,256.988,733.984,256.847C735.527,256.274,737.808,255.970,739.764,256.078C745.765,256.617,750.519,259.040,753.820,260.479C756.906,261.837,761.929,262.558,765.031,262.091ZZM732.674,229.154C732.879,229.080,733.131,228.952,733.234,228.870C733.336,228.788,733.420,228.756,733.420,228.799C733.420,228.842,733.492,228.821,733.580,228.752C734.059,228.380,733.436,227.292,732.621,227.075C731.114,226.674,730.667,227.368,731.236,229.222C731.426,229.841,731.426,229.841,731.864,229.564C732.104,229.412,732.469,229.228,732.674,229.154ZZ" style="fill:#4308ff;fill-opacity:0.7">
                </path>
              </g>
            </g>
          </g>
        </g>
      </g>
    </g>
    <g id="shape-63415e16-3ba5-8045-8004-8e03ef3c502a">
      <g fill="none">
        <g class="fills" id="fills-63415e16-3ba5-8045-8004-8e03ef3c502a">
          <rect rx="0" ry="0" x="740" y="264" width="30.46575342465735" height="27.204545454545496" transform="matrix(1.000000, 0.000000, 0.000000, 1.000000, 0.000000, 0.000000)" class="frame-background">
          </rect>
        </g>
        <g class="frame-children">
          <g id="shape-63415e16-3ba5-8045-8004-8e03ef3c502b" style="fill:#000000" height="375.333" width="375.934" rx="0" ry="0">
            <g id="shape-63415e16-3ba5-8045-8004-8e03ef3c502d">
              <g class="fills" id="fills-63415e16-3ba5-8045-8004-8e03ef3c502d">
                <path d="M754.007,264.715C746.565,264.735,740.544,269.893,740.544,276.247C740.544,278.901,741.616,281.473,743.578,283.530C746.521,287.845,754.071,295.815,765.801,287.064C776.267,279.256,765.100,268.286,763.470,267.983C760.948,265.887,757.568,264.715,754.007,264.715ZC754.036,264.715,754.021,264.715,754.007,264.715ZZ" overflow="visible" color="#000" style="fill:#8ee1d5">
                </path>
              </g>
            </g>
            <g id="shape-63415e16-3ba5-8045-8004-8e03ef3c502e">
              <g class="fills" id="fills-63415e16-3ba5-8045-8004-8e03ef3c502e">
                <path d="M740.156,274.738C739.651,277.287,740.390,280.937,742.126,283.225C743.826,285.618,746.454,287.811,749.337,289.760C751.403,290.745,752.301,291.264,755.254,291.183C757.727,291.322,761.061,290.763,763.087,289.869C764.350,289.312,766.126,287.985,767.033,286.921C768.808,284.877,770.275,282.629,770.438,279.816C770.655,276.064,769.612,273.189,767.023,270.616C765.113,268.739,762.155,266.052,759.873,265.185C758.689,264.693,756.662,264.158,754.677,264.037C745.017,263.446,741.308,270.076,740.156,274.738ZZM753.970,265.413C756.031,265.435,758.135,265.892,760.062,266.756C761.694,267.671,764.160,270.461,764.568,271.855C765.907,276.068,765.120,278.421,763.286,281.245C761.573,284.026,757.968,285.812,754.500,286.303C751.610,286.628,747.501,286.260,744.916,283.855C742.329,281.259,741.098,277.548,741.839,274.581C742.398,272.345,743.846,270.063,745.889,268.195C748.035,266.279,750.957,265.381,753.970,265.413ZZM766.726,272.510C766.782,272.499,766.875,272.568,767.009,272.685C767.849,273.495,768.450,274.489,768.651,275.523L766.884,274.132C766.882,274.121,766.881,274.109,766.879,274.099C766.666,272.946,766.605,272.534,766.726,272.510ZZM766.963,275.526L768.847,277.066C768.880,277.451,768.905,277.841,768.911,278.217L766.823,276.727C766.898,276.333,766.945,275.926,766.963,275.526ZZM766.532,277.808L768.832,279.671C768.749,280.019,768.465,280.660,768.387,280.660C767.680,280.297,767.315,279.643,766.523,279.370C766.029,279.259,765.993,279.013,766.356,278.237C766.419,278.102,766.478,277.958,766.532,277.808ZZM765.779,280.233C765.921,280.216,766.266,280.404,766.654,280.718C767.073,281.057,767.586,281.334,767.793,281.334C768.234,281.334,768.237,281.348,767.951,282.200C767.724,282.878,767.636,282.944,767.321,282.672C766.868,282.279,765.651,281.503,765.489,281.503C765.287,281.503,765.483,280.490,765.779,280.233ZC765.742,280.243,765.758,280.236,765.779,280.233ZZM764.634,282.285C764.786,282.298,765.006,282.417,765.271,282.639C766.482,283.611,767.653,283.632,767.319,283.831C767.255,283.994,766.898,284.368,766.781,284.365C766.183,284.353,764.417,283.016,764.404,282.567C764.399,282.366,764.483,282.272,764.634,282.285ZZM763.545,283.637C763.652,283.631,763.750,283.704,763.916,283.836C764.502,284.302,765.045,284.776,765.751,285.092L766.306,285.333L765.807,285.863C765.532,286.155,765.252,286.393,765.183,286.391C764.170,285.911,763.261,285.227,762.296,284.665L762.912,284.097C763.251,283.784,763.406,283.645,763.545,283.637ZZM761.417,285.336C761.550,285.335,761.730,285.451,762.071,285.719C762.551,286.092,763.272,286.316,763.824,286.736C764.560,287.298,764.624,287.187,762.951,288.252C762.004,288.855,762.246,288.677,761.774,288.369C761.362,288.100,760.301,287.218,759.218,286.509C759.059,286.404,759.731,286.210,759.805,286.103C760.580,286.528,761.726,287.409,762.503,287.884C762.758,288.026,763.271,287.627,763.261,287.436C763.248,287.191,762.555,286.590,761.784,286.154C761.122,285.781,761.017,285.655,761.202,285.456C761.274,285.379,761.337,285.336,761.417,285.336ZZM745.854,285.953C746.671,286.228,747.617,286.698,747.783,286.899C748.231,287.265,748.898,287.874,749.565,288.128C750.133,288.369,750.654,288.646,750.722,288.744C750.965,289.097,749.382,288.776,748.689,288.333C747.959,287.866,745.761,285.953,745.854,285.953ZZM757.572,287.144C758.054,287.165,758.942,287.613,760.013,288.385C760.443,288.690,761.409,289.159,761.098,289.261C760.826,289.353,760.460,289.422,760.285,289.413C759.961,289.398,757.186,287.658,757.082,287.405C757.050,287.328,757.189,287.218,757.391,287.161C757.443,287.146,757.503,287.141,757.572,287.144ZZM754.902,287.574C755.071,287.574,755.522,287.680,755.767,287.935C756.660,288.546,757.520,289.056,758.282,289.824C758.083,289.987,757.768,290.053,757.422,289.709C756.828,289.342,755.984,288.767,755.348,288.248C754.549,287.807,754.395,287.574,754.902,287.574ZZM751.631,287.748C752.737,287.763,754.477,288.965,755.386,289.654C755.767,290.003,755.540,289.935,754.909,289.935C754.484,289.935,754.006,289.754,753.464,289.387C752.882,288.994,752.138,288.555,751.476,288.127L750.917,287.753Z" style="fill:#4308ff;fill-opacity:0.7">
                </path>
              </g>
            </g>
          </g>
        </g>
      </g>
    </g>
    <g id="shape-63415e16-3ba5-8045-8004-8e03cc5c5162">
      <g transform="matrix(1.000000, 0.000000, 0.000000, 1.000000, 0.000000, 0.000000)" class="text-container" x="786" y="240" width="146" height="49" rx="0" ry="0">
        <defs>
          <pattern patternUnits="userSpaceOnUse" x="786" y="240" width="136.09375" height="40" id="fill-0-render-9503-0">
            <g>
              <rect width="136.09375" height="40" style="fill:#4308ff;fill-opacity:0.7">
              </rect>
            </g>
          </pattern>
        </defs>
        <g class="fills" id="fills-63415e16-3ba5-8045-8004-8e03cc5c5162">
          <text x="786" y="278" dominant-baseline="ideographic" textLength="136.09375" lengthAdjust="spacingAndGlyphs" style="text-transform:none;font-family:&quot;Red Hat Display&quot;;letter-spacing:normal;font-style:normal;font-weight:700;white-space:pre;font-size:30px;text-decoration:none solid rgba(67, 8, 255, 0.7);direction:ltr;fill:#4308ff;fill-opacity:0.7">Ideal Flag</text>
        </g>
      </g>
    </g>
  </g>
</svg>