<svg width="219" xmlns="http://www.w3.org/2000/svg" height="207" id="screenshot-d5439c29-1b72-803f-8004-8f2f057c6d7b" viewBox="1412 424 219 207" style="-webkit-print-color-adjust::exact" xmlns:xlink="http://www.w3.org/1999/xlink" fill="none" version="1.1">
  <g id="shape-d5439c29-1b72-803f-8004-8f2f057c6d7b" rx="0" ry="0">
    <g id="shape-1b5ba76f-ce73-80e4-8004-8e625803ebfd">
      <g fill="none">
        <g class="fills" id="fills-1b5ba76f-ce73-80e4-8004-8e625803ebfd">
          <rect rx="0" ry="0" x="1464" y="423.9999999999998" width="167" height="207" transform="matrix(1.000000, 0.000000, 0.000000, 1.000000, 0.000000, 0.000000)" class="frame-background">
          </rect>
        </g>
        <g class="frame-children">
          <g id="shape-1b5ba76f-ce73-80e4-8004-8e625803ebfe" style="fill:#000000" width="235.711" height="268.103" rx="0" ry="0">
            <g id="shape-1b5ba76f-ce73-80e4-8004-8e625803ec00">
              <g class="fills" id="fills-1b5ba76f-ce73-80e4-8004-8e625803ec00">
                <path d="M1525.474,587.784L1525.940,618.181C1525.940,618.181,1539.151,628.231,1575.819,628.397C1612.487,628.563,1626.587,615.316,1626.587,615.316C1626.587,615.316,1611.894,500.537,1601.097,480.147C1590.300,459.758,1586.658,446.137,1596.609,447.134C1606.559,448.130,1621.421,458.470,1623.538,451.951C1625.655,445.431,1617.737,429.402,1606.940,428.239C1596.143,427.076,1574.930,439.493,1574.930,439.493L1522.298,441.984C1522.298,441.984,1517.641,426.080,1506.928,431.063C1496.216,436.046,1481.481,450.830,1484.233,459.426C1486.985,468.022,1501.169,453.612,1506.251,452.325C1511.332,451.037,1518.996,452.075,1514.041,464.949C1509.088,477.822,1478.686,510.171,1477.120,512.413C1475.553,514.656,1481.184,541.731,1503.372,544.306C1525.559,546.880,1541.141,538.990,1541.141,538.990L1529.242,563.408C1529.242,563.408,1484.021,581.098,1486.011,605.474C1488.001,629.850,1501.763,627.068,1504.091,617.724C1506.420,608.381,1511.502,589.362,1525.474,587.784ZZ" overflow="visible" color="#000" style="fill:#8ee1d5;fill-opacity:0.7">
                </path>
              </g>
            </g>
            <g id="shape-1b5ba76f-ce73-80e4-8004-8e625803ec01">
              <g class="fills" id="fills-1b5ba76f-ce73-80e4-8004-8e625803ec01">
                <path d="M1598.055,424.004C1589.051,423.876,1580.305,426.783,1575.291,432.312C1574.595,433.246,1571.215,434.635,1570.332,434.349C1556.006,431.338,1538.842,433.026,1525.238,437.879L1523.734,436.440C1517.467,423.098,1507.572,426.952,1502.744,428.382C1488.927,432.475,1473.734,447.674,1475.318,465.089C1475.688,469.159,1477.525,474.660,1484.216,472.644C1491.031,470.152,1499.132,460.284,1507.070,456.491C1511.057,454.585,1511.645,458.235,1510.696,461.486C1507.263,473.253,1483.636,499.735,1469.185,506.002C1461.137,506.270,1463.467,517.189,1469.328,520.014C1470.655,520.014,1471.698,520.957,1471.698,522.156C1474.303,540.058,1500.622,554.853,1522.249,549.460C1524.316,548.698,1528.843,547.950,1530.909,547.358C1529.662,551.808,1527.838,555.010,1527.646,556.713C1514.515,561.462,1492.297,570.549,1486.462,581.897C1480.586,593.490,1477.072,608.349,1482.639,620.588C1486.600,628.958,1494.864,634.422,1502.588,628.535C1508.852,625.919,1509.837,618.086,1511.212,610.440C1512.587,602.795,1514.352,595.336,1522.179,593.469C1520.974,598.298,1521.739,605.861,1521.265,610.890C1520.152,624.529,1532.115,618.516,1531.047,612.260C1530.405,587.084,1541.091,547.055,1545.984,541.097C1559.940,533.197,1570.016,523.809,1579.053,514.389C1582.023,511.294,1590.840,499.041,1590.840,496.022C1590.678,492.949,1586.944,489.314,1583.126,492.512C1574.325,502.411,1573.208,505.878,1562.068,514.586C1562.198,507.167,1560.109,500.825,1556.867,495.843C1554.327,493.151,1549.590,495.784,1550.928,500.113C1553.167,505.550,1552.724,511.148,1551.416,517.114C1551.416,518.340,1549.611,521.793,1548.242,523.187C1539.574,531.723,1518.037,539.447,1507.059,538.015C1499.296,537.002,1491.209,531.579,1485.874,525.331C1482.639,521.474,1482.566,521.217,1484.373,520.055C1489.954,517.295,1493.564,511.894,1490.505,507.248C1488.967,504.938,1488.957,504.261,1490.449,503.555C1503.449,496.387,1512.602,485.528,1516.649,470.086C1523.149,456.133,1518.800,448.101,1510.877,447.037C1506.261,446.422,1502.895,448.091,1498.698,451.357C1496.670,452.926,1492.851,455.439,1495.424,451.219C1497.325,449.286,1498.789,445.079,1498.920,441.168C1499.220,436.534,1506.796,432.535,1511.526,437.579C1513.626,439.470,1514.126,440.181,1514.140,441.316C1514.307,445.715,1526.305,449.138,1530.351,447.741C1532.735,446.560,1533.808,444.711,1537.437,447.592C1543.052,453.819,1561.612,453.817,1566.429,441.955C1567.121,440.269,1570.446,439.753,1571.798,441.121C1573.807,443.076,1577.255,443.138,1579.558,441.857C1590.387,432.245,1603.168,428.744,1615.602,439.624C1621.856,445.096,1619.807,448.940,1611.142,447.022C1607.105,446.131,1602.520,445.122,1595.556,444.675C1590.377,444.226,1586.365,449.398,1586.134,455.940C1586.013,459.936,1588.428,462.656,1589.564,465.866C1592.444,476.249,1599.400,489.401,1602.158,502.078C1603.177,506.615,1602.310,506.139,1598.971,509.552C1593.193,515.703,1587.208,524.979,1585.279,534.491C1584.662,537.152,1585.963,548.604,1581.951,548.559C1557.620,554.020,1553.032,574.400,1550.922,598.824C1550.073,608.656,1555.812,619.946,1561.641,624.318C1567.874,628.834,1571.302,626.118,1575.349,622.362C1582.987,615.273,1581.949,603.971,1583.646,596.231C1584.364,592.957,1592.044,582.776,1592.131,587.150C1596.298,602.918,1610.545,600.517,1618.086,594.382C1618.991,599.332,1619.109,600.419,1619.109,603.614C1618.977,608.014,1619.476,615.377,1622.122,616.507C1625.821,619.334,1632.546,617.113,1630.679,608.565C1630.200,603.156,1627.604,586.012,1627.240,579.409C1623.361,539.024,1610.796,495.865,1596.420,458.831C1593.159,455.757,1595.288,450.956,1599.809,452.682C1606.149,452.597,1618.514,459.012,1626.387,458.558C1632.766,457.218,1629.932,452.083,1628.333,445.305C1624.924,430.859,1611.215,424.189,1598.055,424.004ZZM1559.347,459.550C1558.869,459.558,1558.345,459.631,1557.773,459.782C1555.487,459.759,1554.336,461.460,1553.604,465.947C1552.901,470.258,1553.213,472.458,1554.750,474.010C1559.594,478.774,1562.493,470.464,1563.841,465.394C1563.827,462.748,1562.695,459.506,1559.347,459.550ZZM1538.377,462.765C1536.635,462.727,1535.138,463.413,1534.635,464.843C1533.162,469.526,1532.380,476.566,1536.530,479.528C1540.935,480.456,1542.949,478.033,1543.883,473.161C1544.836,468.137,1544.765,466.208,1543.591,465.042C1542.106,463.568,1540.119,462.804,1538.377,462.765ZZM1584.319,560.058C1586.039,561.587,1590.896,564.850,1592.957,564.850C1596.208,566.607,1593.555,570.939,1591.023,571.637C1572.219,576.369,1575.258,593.011,1569.328,606.417C1566.020,612.861,1563.932,612.343,1562.416,604.250C1559.913,590.889,1566.923,569.705,1574.837,563.986C1578.113,561.618,1584.319,560.058,1584.319,560.058ZZM1525.898,570.289C1524.007,574.810,1524.580,578.793,1522.977,581.934C1522.420,586.224,1506.774,584.605,1502.309,603.382C1499.944,611.112,1494.171,623.266,1491.507,610.152C1490.462,604.281,1491.864,598.481,1493.660,594.507C1499.390,582.116,1511.153,575.591,1525.898,570.289ZZ" style="fill:#4308ff;fill-opacity:0.7">
                </path>
              </g>
            </g>
          </g>
        </g>
      </g>
    </g>
    <g id="shape-1b5ba76f-ce73-80e4-8004-8e6264412f9c">
      <g fill="none">
        <g class="fills" id="fills-1b5ba76f-ce73-80e4-8004-8e6264412f9c">
          <rect rx="0" ry="0" x="1412" y="489.7142857142855" width="72.49900000000002" height="88.30904761904787" transform="matrix(1.000000, 0.000000, 0.000000, 1.000000, 0.000000, 0.000000)" class="frame-background">
          </rect>
        </g>
        <g class="frame-children">
          <g id="shape-1b5ba76f-ce73-80e4-8004-8e6264412f9d" style="fill:#000000" width="274.011" height="304.744" rx="0" ry="0">
            <g id="shape-1b5ba76f-ce73-80e4-8004-8e6264412f9f">
              <g class="fills" id="fills-1b5ba76f-ce73-80e4-8004-8e6264412f9f">
                <path d="M1422.266,492.859C1422.109,492.863,1420.852,493.113,1420.690,493.168C1417.234,494.345,1420.665,509.712,1420.665,509.712C1419.148,519.836,1415.554,537.879,1414.893,561.499C1414.557,563.996,1414.248,566.093,1413.988,567.561C1420.807,568.173,1426.256,569.558,1433.624,568.830C1433.624,568.830,1434.936,575.262,1440.050,575.770C1445.164,576.279,1445.100,568.093,1445.100,568.093C1450.422,569.615,1457.618,567.935,1464.825,566.235L1463.548,554.326C1467.819,554.847,1474.149,555.033,1475.075,559.394C1476.025,563.866,1478.556,567.193,1480.631,563.680C1482.706,560.168,1484.136,549.273,1476.060,546.765C1472.902,545.211,1462.710,546.507,1462.456,544.139C1459.887,531.434,1461.360,525.306,1460.313,516.095L1459.678,507.078L1457.648,494.915L1451.045,503.231L1427.321,502.858C1427.321,502.858,1425.435,492.785,1422.266,492.859ZZ" overflow="visible" color="#000" style="fill:#8ee1d5;fill-opacity:0.7">
                </path>
              </g>
            </g>
            <g id="shape-1b5ba76f-ce73-80e4-8004-8e6264412fa0">
              <g class="fills" id="fills-1b5ba76f-ce73-80e4-8004-8e6264412fa0">
                <path d="M1422.240,489.714C1419.695,489.693,1417.419,494.532,1417.068,497.778C1417.009,501.384,1416.337,502.457,1418.076,508.632C1418.025,516.667,1412.727,546.388,1412.094,559.308C1412.227,562.349,1411.402,564.789,1413.025,567.343C1414.314,568.838,1414.889,568.503,1416.150,567.861C1417.106,567.374,1416.913,563.537,1416.732,560.778C1416.533,554.823,1417.760,547.613,1418.516,537.652C1418.643,536.016,1418.670,535.980,1419.654,536.211C1420.533,536.408,1421.521,536.258,1422.440,536.055C1423.266,535.899,1424.469,535.571,1424.797,534.653C1425.395,532.377,1421.447,533.113,1419.846,532.567C1419.229,532.364,1419.225,532.355,1419.330,531.526C1419.409,530.895,1419.293,531.094,1419.632,530.310C1420.151,530.304,1420.724,530.237,1421.325,530.472C1422.976,530.616,1424.485,530.326,1424.928,529.779C1425.868,528.562,1424.637,527.854,1423.489,527.348C1422.363,526.853,1421.216,526.975,1420.034,526.861C1420.026,526.467,1419.961,526.182,1419.996,525.999C1420.047,525.729,1420.238,525.682,1421.021,525.747C1424.350,526.025,1424.668,525.996,1425.393,525.357C1427.699,523.250,1424.079,522.453,1422.363,522.300C1421.084,522.099,1420.578,521.957,1420.521,521.784C1421.117,517.027,1421.545,515.522,1422.332,510.473C1422.697,507.487,1418.764,503.004,1420.705,498.365C1421.189,496.671,1421.510,495.859,1421.950,495.805C1422.213,495.772,1422.519,496.013,1422.927,496.499C1424.240,498.033,1423.437,503.748,1426.861,505.029C1428.532,505.868,1429.978,505.466,1431.501,505.523C1431.309,506.542,1431.408,507.217,1431.980,508.237C1432.514,509.170,1432.951,509.334,1433.589,508.842C1434.074,508.468,1434.298,507.368,1434.757,505.745C1434.919,505.189,1436.501,504.239,1436.873,505.777C1437.229,507.251,1436.951,507.690,1437.573,508.726C1438.278,509.687,1439.053,510.451,1439.883,508.391C1440.200,507.638,1440.319,506.592,1440.355,505.460C1440.609,504.109,1441.333,504.408,1442.390,505.100C1442.871,506.305,1443.055,507.217,1444.082,507.755C1444.986,507.938,1445.530,506.905,1445.827,505.914C1446.113,505.141,1446.113,505.140,1446.950,505.206C1447.411,505.242,1448.560,505.438,1449.504,505.640C1452.357,506.124,1453.819,501.292,1455.039,498.706C1455.773,497.288,1456.686,497.687,1457.236,499.430C1457.211,502.365,1457.004,505.978,1457.574,507.601C1459.201,513.903,1460.776,521.071,1459.568,529.474C1457.786,530.728,1454.999,527.398,1454.899,524.827C1456.725,524.327,1458.429,519.981,1454.858,519.213C1453.735,518.820,1453.068,518.726,1450.813,518.647C1447.144,518.573,1446.966,523.465,1450.715,524.245C1451.722,525.443,1449.063,530.586,1447.713,531.427C1445.737,532.659,1443.855,530.850,1442.379,529.447C1441.876,528.819,1440.565,528.746,1440.225,529.327C1439.314,531.219,1443.749,534.821,1445.490,535.372C1447.940,536.269,1450.233,535.361,1451.640,533.114C1452.259,532.024,1452.858,531.090,1453.365,529.935C1454.044,529.017,1453.866,529.939,1454.420,530.694C1455.208,532.146,1457.138,533.767,1459.087,533.701C1459.474,540.405,1459.832,545.151,1460.097,548.968C1460.309,552.007,1461.513,563.299,1461.513,563.299C1462.294,571.443,1466.322,567.604,1465.951,563.739C1465.762,561.770,1466.233,560.939,1465.999,556.224C1468.393,556.866,1472.557,559.473,1474.102,563.805C1477.756,571.091,1485.210,565.695,1484.444,559.143C1483.832,556.396,1483.418,553.655,1482.032,550.840C1477.544,542.264,1469.973,542.597,1463.652,542.531C1462.907,532.531,1464.017,521.367,1462.601,510.776C1462.302,508.796,1461.937,506.723,1461.486,504.538C1460.600,500.518,1461.952,495.953,1459.391,492.272C1458.342,490.967,1456.130,490.963,1454.675,492.268C1452.191,494.985,1450.976,497.809,1448.231,501.003C1439.501,500.246,1435.188,501.036,1428.877,500.570C1427.477,498.218,1426.833,495.978,1425.723,493.362C1424.609,490.738,1423.397,489.724,1422.240,489.714ZZM1443.956,510.889C1443.002,510.872,1442.402,511.660,1442.066,513.315C1441.895,514.174,1441.844,515.595,1442.710,516.539C1443.180,516.982,1444.475,516.918,1445.135,516.659C1446.213,516.128,1447.333,511.943,1445.031,511.170C1444.631,510.989,1444.273,510.894,1443.956,510.889ZZM1433.460,511.155C1431.861,511.155,1431.565,512.980,1431.714,514.782C1431.856,516.406,1432.755,517.393,1434.238,517.609C1435.563,517.382,1436.043,515.933,1436.293,513.712C1436.288,511.728,1435.664,511.167,1433.460,511.155ZZM1434.412,545.182C1434.036,546.500,1435.352,548.595,1436.554,548.889C1441.430,550.526,1443.170,557.350,1442.964,562.074C1442.845,563.963,1443.193,565.901,1442.423,567.970C1442.225,568.646,1442.095,568.825,1441.765,568.884C1440.614,569.119,1441.012,571.102,1440.407,571.947C1439.841,572.181,1439.834,571.960,1440.320,569.448C1440.617,567.917,1441.305,564.941,1438.777,565.640C1438.329,565.885,1437.896,567.016,1437.557,568.816C1437.368,569.824,1437.161,570.636,1437.095,570.621C1435.920,570.047,1435.980,562.195,1435.657,561.179C1435.966,555.931,1431.507,552.677,1428.928,551.961C1425.591,551.035,1425.000,553.627,1427.376,555.518C1427.316,555.508,1427.258,555.496,1427.198,555.486C1433.128,560.952,1429.594,565.528,1432.218,571.162C1434.801,576.707,1442.552,581.871,1445.388,573.997C1445.813,572.816,1446.176,571.683,1446.483,570.593C1447.739,564.642,1447.878,559.721,1446.571,554.644C1444.731,547.499,1442.053,546.532,1439.602,544.931C1437.325,543.877,1434.950,543.480,1434.412,545.182ZZM1478.986,554.861C1478.145,556.391,1477.703,556.488,1478.182,560.006C1478.614,561.467,1477.800,561.959,1476.815,560.168C1473.784,555.380,1470.485,552.260,1465.709,552.376C1464.904,552.006,1464.251,547.196,1464.984,547.343C1471.103,545.502,1477.473,550.149,1478.986,554.861ZZ" style="fill:#4308ff;fill-opacity:0.7">
                </path>
              </g>
            </g>
          </g>
        </g>
      </g>
    </g>
  </g>
</svg>