<svg width="41" xmlns="http://www.w3.org/2000/svg" height="42" id="screenshot-79fc1859-f908-80b6-8004-90a2ee464c45" viewBox="2078 426 41 42" style="-webkit-print-color-adjust::exact" xmlns:xlink="http://www.w3.org/1999/xlink" fill="none" version="1.1">
  <g id="shape-79fc1859-f908-80b6-8004-90a2ee464c45">
    <g fill="none">
      <g class="fills" id="fills-79fc1859-f908-80b6-8004-90a2ee464c45">
        <rect rx="0" ry="0" x="2078" y="426" width="41" height="42.000000000000114" transform="matrix(1.000000, 0.000000, 0.000000, 1.000000, 0.000000, 0.000000)" class="frame-background">
        </rect>
      </g>
      <g class="frame-children">
        <g id="shape-79fc1859-f908-80b6-8004-90a2ee464c46" style="fill:#000000" class="bi bi-trash-fill" width="16" height="16" rx="0" ry="0">
          <g id="shape-79fc1859-f908-80b6-8004-90a2ee464c48">
            <g class="fills" id="fills-79fc1859-f908-80b6-8004-90a2ee464c48">
              <path d="M2084.406,428.625C2082.991,428.625,2081.844,429.800,2081.844,431.250L2081.844,433.875C2081.844,435.325,2082.991,436.500,2084.406,436.500L2085.688,436.500L2085.688,460.125C2085.688,463.024,2087.982,465.375,2090.813,465.375L2106.188,465.375C2109.018,465.375,2111.313,463.024,2111.313,460.125L2111.313,436.500L2112.594,436.500C2114.009,436.500,2115.156,435.325,2115.156,433.875L2115.156,431.250C2115.156,429.800,2114.009,428.625,2112.594,428.625L2103.625,428.625C2103.625,427.175,2102.478,426.000,2101.063,426.000L2095.938,426.000C2094.522,426.000,2093.375,427.175,2093.375,428.625L2084.406,428.625ZZM2092.094,439.125C2092.801,439.125,2093.375,439.713,2093.375,440.438L2093.375,458.813C2093.375,459.537,2092.801,460.125,2092.094,460.125C2091.386,460.125,2090.813,459.537,2090.813,458.813L2090.813,440.438C2090.813,439.713,2091.386,439.125,2092.094,439.125ZZM2098.500,439.125C2099.208,439.125,2099.781,439.713,2099.781,440.438L2099.781,458.813C2099.781,459.537,2099.208,460.125,2098.500,460.125C2097.792,460.125,2097.219,459.537,2097.219,458.813L2097.219,440.438C2097.219,439.713,2097.792,439.125,2098.500,439.125ZZM2106.188,440.438L2106.188,458.813C2106.188,459.537,2105.614,460.125,2104.906,460.125C2104.199,460.125,2103.625,459.537,2103.625,458.813L2103.625,440.438C2103.625,439.713,2104.199,439.125,2104.906,439.125C2105.614,439.125,2106.188,439.713,2106.188,440.438ZZ" style="fill:#000000;fill-opacity:0.6">
              </path>
            </g>
          </g>
        </g>
      </g>
    </g>
  </g>
</svg>